<svg width="37" height="35" viewBox="0 0 37 35" fill="none" xmlns="http://www.w3.org/2000/svg">
<path fill-rule="evenodd" clip-rule="evenodd" d="M33.9252 18.5651L33.925 18.564C35.777 18.004 36.6335 20.7524 34.8164 21.3987L34.8092 21.4011L34.7972 21.4049L34.3842 21.5386L33.5446 25.8901C33.1331 28.0137 31.7795 29.8224 29.8961 30.7984V32.2834L29.896 32.2884C29.8487 33.7913 28.337 34.2414 27.4116 33.6401C27.0148 33.3823 26.7219 32.9332 26.7017 32.2884L26.7016 32.2834V31.5715C25.0816 31.5782 11.8777 31.5782 10.2577 31.5715V32.2834L10.2576 32.2883C10.2114 33.7913 8.69983 34.2414 7.77441 33.6401C7.37775 33.3823 7.08483 32.9332 7.06458 32.2884L7.0645 32.2834L7.06466 30.7986C5.18233 29.8252 3.82741 28.0151 3.416 25.8901L1.818 17.6012C0.372914 16.6745 1.41566 14.3897 3.07333 14.939L3.07616 14.94L3.74133 15.1749L3.74141 11.4835C2.65283 11.0376 2.65283 9.39293 3.74133 8.94709V6.81115C3.74133 3.66014 6.26208 1.09599 9.36041 1.09505C12.4572 1.0276 15.113 3.86039 14.9869 6.98683C16.5023 7.14039 17.6914 8.44124 17.6914 10.0222C17.6914 10.3188 17.4553 10.5589 17.1636 10.5589H11.7411C11.4493 10.5589 11.2132 10.3188 11.2132 10.0222C11.2132 8.43666 12.4086 7.13209 13.9319 6.98649C14.0472 4.43743 11.8948 2.1148 9.36683 2.17115H9.36341C6.84725 2.17115 4.7995 4.2537 4.7995 6.81251L4.79941 8.94853C5.88666 9.39446 5.88791 11.039 4.7995 11.4849V15.5506L17.3528 19.994C21.104 21.3208 25.2508 21.3769 29.0265 20.1527L33.9198 18.5656C33.8257 18.5978 33.8393 18.6758 33.8757 18.7451L33.9458 18.7224L33.9217 18.5651H33.9252L33.9475 18.7219L33.9628 18.7169C33.9572 18.6428 33.9462 18.5692 33.9252 18.5651ZM28.8392 32.282L28.8391 31.2464C28.4865 31.3591 28.1232 31.4345 27.7585 31.4962V32.282C27.7722 33.0065 28.8256 33.0065 28.8392 32.282ZM34.3885 20.5751C34.3998 20.5715 34.4112 20.5679 34.4225 20.5641C34.3963 20.5207 34.3841 20.472 34.4151 20.4295C34.3889 20.4629 34.3763 20.5067 34.3831 20.5516C34.3843 20.5597 34.3861 20.5675 34.3885 20.5751ZM34.4885 20.3779C34.4747 20.3825 34.4618 20.3889 34.4502 20.3967C34.4712 20.3824 34.4932 20.4585 34.5098 20.5362C34.5107 20.5358 34.5118 20.5355 34.5128 20.5351L34.4885 20.3779ZM34.4885 20.3779L34.4897 20.3776C34.7025 20.3071 34.8195 20.073 34.7507 19.8543L34.7493 19.8496C34.6891 19.635 34.4479 19.5201 34.2476 19.5864L34.2467 19.5867L29.3477 21.177C25.3553 22.4714 20.9722 22.4117 17.0061 21.0088L2.731 15.9552C2.52325 15.8822 2.28508 15.9944 2.21025 16.2116L2.20925 16.2143C2.13541 16.4169 2.25275 16.6662 2.45591 16.7324L2.4595 16.7337L16.7405 21.7873C18.8794 22.5471 21.1286 22.9317 23.4263 22.9317L23.4325 22.9318C26.9909 23.076 31.1366 21.4502 34.4885 20.3779ZM9.20066 32.282V31.4963C8.83533 31.4345 8.4725 31.3591 8.12 31.2464V32.282C8.13366 33.0065 9.187 33.0065 9.20066 32.282ZM16.5654 9.48598C16.3176 8.5731 15.4254 7.95802 14.4651 8.04565C14.4559 8.04649 14.4467 8.04649 14.4376 8.04565C13.4784 7.95929 12.5887 8.57438 12.3412 9.48598H16.5654ZM4.27191 10.5231L4.26766 9.91124C3.87808 9.92395 3.87966 10.5145 4.27041 10.5232L4.27191 10.5231ZM32.507 25.6839L33.2331 21.9147C30.1377 22.9531 26.7165 24.1073 23.4238 24.0067C21.0078 24.0064 18.6423 23.602 16.393 22.8034L2.98275 18.0578L4.454 25.6838C4.82008 27.5813 6.07408 29.1845 7.80641 29.9734L7.80783 29.974C8.55416 30.3233 9.38108 30.5003 10.2119 30.5017H26.7482H26.7499C29.4975 30.534 32.0087 28.4301 32.5067 25.6856L32.507 25.6839ZM22.6774 6.82293C22.6774 6.82048 22.6785 6.14726 22.6777 6.00963L22.6776 5.99048L22.6774 5.98344C22.6812 5.28116 23.7305 5.28116 23.7343 5.98344V5.98429V6.28344L24.1779 6.28353C24.4249 5.7876 24.9318 5.4476 25.515 5.4476H31.6143C32.1988 5.4476 32.707 5.78768 32.9552 6.28344H33.3978V5.98429V5.98344C33.4016 5.27921 34.4527 5.28183 34.4547 5.98404V7.65878V7.65963C34.4508 8.36387 33.3997 8.36124 33.3978 7.65904V7.35827H33.1173V14.4078C33.1173 15.249 32.4432 15.9334 31.613 15.9334L25.5151 15.9349C24.6878 15.9349 24.0148 15.2504 24.0148 14.4091V7.35963H23.7343V7.66014V7.66107C23.7306 8.36327 22.6794 8.3626 22.6775 7.66039L22.6774 6.82293ZM25.0717 6.97327L25.0714 12.2226L32.0605 12.2227V6.97327C32.0605 6.72455 31.8597 6.52234 31.613 6.52234H25.5151C25.2708 6.52234 25.0717 6.7248 25.0717 6.97327ZM25.0717 13.2977L25.0717 14.4079C25.0717 14.6563 25.2708 14.8588 25.5151 14.8588L31.612 14.8601C31.8586 14.8601 32.0594 14.658 32.0594 14.4093V13.2977H25.0717Z" fill="#FFFBF9"/>
</svg>
