<?xml version="1.0" encoding="UTF-8" standalone="no"?><!DOCTYPE svg PUBLIC "-//W3C//DTD SVG 1.1//EN" "http://www.w3.org/Graphics/SVG/1.1/DTD/svg11.dtd"><svg width="100%" height="100%" viewBox="0 0 14 16" version="1.1" xmlns="http://www.w3.org/2000/svg" xmlns:xlink="http://www.w3.org/1999/xlink" xml:space="preserve" xmlns:serif="http://www.serif.com/" style="fill-rule:evenodd;clip-rule:evenodd;stroke-linejoin:round;stroke-miterlimit:2;"><rect id="Artboard1" x="0" y="0" width="13.28" height="16" style="fill:none;"/><path d="M5.751,15.111l0,-12.076l-4.139,4.139c-0.347,0.348 -0.911,0.348 -1.257,0c-0.348,-0.346 -0.348,-0.91 -0,-1.257l5.657,-5.656c0.346,-0.348 0.91,-0.348 1.256,-0l5.657,5.656c0.348,0.347 0.348,0.911 0,1.257c-0.347,0.348 -0.91,0.348 -1.257,0l-4.139,-4.139l-0,12.076c-0,0.491 -0.398,0.889 -0.889,0.889c-0.491,-0 -0.889,-0.398 -0.889,-0.889Z" style="fill:#fffbf9;"/></svg>