<?xml version="1.0" encoding="UTF-8" standalone="no"?><!DOCTYPE svg PUBLIC "-//W3C//DTD SVG 1.1//EN" "http://www.w3.org/Graphics/SVG/1.1/DTD/svg11.dtd"><svg width="100%" height="100%" viewBox="0 0 30 27" version="1.1" xmlns="http://www.w3.org/2000/svg" xmlns:xlink="http://www.w3.org/1999/xlink" xml:space="preserve" xmlns:serif="http://www.serif.com/" style="fill-rule:evenodd;clip-rule:evenodd;stroke-linejoin:round;stroke-miterlimit:2;"><path d="M21.696,0.85l0.001,-0.15l0.147,-0l0.001,0.003l0.003,0.001c4.122,0.081 7.452,3.44 7.452,7.562c0,3.587 -1.76,6.376 -4.356,9.098c-1.285,1.349 -2.78,2.687 -4.371,4.104c-1.586,1.412 -3.269,2.904 -4.942,4.57c-0.351,0.349 -0.92,0.349 -1.27,-0c-2.068,-2.059 -4.15,-3.853 -6.045,-5.558c-1.902,-1.711 -3.617,-3.335 -4.928,-5.035c-1.83,-2.374 -2.688,-4.659 -2.688,-7.179c-0,-4.173 3.408,-7.566 7.597,-7.566c1.757,-0 3.11,0.425 4.223,1.206c0.982,0.689 1.767,1.651 2.476,2.826c0.709,-1.175 1.494,-2.137 2.476,-2.826c1.113,-0.781 2.466,-1.206 4.223,-1.206l0,0.15l0.001,-0Z" style="fill:#fe575a;"/></svg>