<?xml version="1.0" encoding="UTF-8" standalone="no"?><!DOCTYPE svg PUBLIC "-//W3C//DTD SVG 1.1//EN" "http://www.w3.org/Graphics/SVG/1.1/DTD/svg11.dtd"><svg width="100%" height="100%" viewBox="0 0 24 23" version="1.1" xmlns="http://www.w3.org/2000/svg" xmlns:xlink="http://www.w3.org/1999/xlink" xml:space="preserve" xmlns:serif="http://www.serif.com/" style="fill-rule:evenodd;clip-rule:evenodd;stroke-linejoin:round;stroke-miterlimit:2;"><rect id="Artboard1" x="0" y="0" width="23.188" height="22.882" style="fill:none;"/><g id="Artboard11" serif:id="Artboard1"><g><path d="M10.304,12.731c0.189,0.188 0.296,0.443 0.296,0.71c-0,0.266 -0.107,0.522 -0.296,0.71l-5.3,5.29l2.59,-0c0.549,-0 1,0.451 1,1c0,0.548 -0.451,1 -1,1l-5,-0c-0.548,-0 -1,-0.452 -1,-1l0,-5c0,-0.549 0.452,-1 1,-1c0.549,-0 1,0.451 1,1l0,2.59l5.29,-5.3c0.188,-0.189 0.444,-0.296 0.71,-0.296c0.267,0 0.522,0.107 0.71,0.296Zm10.29,-11.29c0.549,-0 1,0.451 1,1l0,5c0,0.548 -0.451,1 -1,1c-0.548,-0 -1,-0.452 -1,-1l0,-2.59l-5.29,5.3c-0.188,0.189 -0.443,0.296 -0.71,0.296c-0.266,-0 -0.522,-0.107 -0.71,-0.296c-0.189,-0.188 -0.296,-0.444 -0.296,-0.71c0,-0.267 0.107,-0.522 0.296,-0.71l5.3,-5.29l-2.59,-0c-0.548,-0 -1,-0.452 -1,-1c0,-0.549 0.452,-1 1,-1l5,-0Z" style="fill:#fff;"/></g></g></svg>