<svg width="41" height="29" viewBox="0 0 41 29" fill="none" xmlns="http://www.w3.org/2000/svg">
<path d="M40.1443 4.5388C39.6714 2.74896 38.2827 1.34427 36.5187 0.86849C33.3209 0 20.5 0 20.5 0C20.5 0 7.67906 0 4.48133 0.86849C2.71732 1.34427 1.32863 2.74896 0.855731 4.5388C0 7.77865 0 14.5302 0 14.5302C0 14.5302 0 21.2818 0.855731 24.5216C1.32863 26.3115 2.71732 27.6557 4.48133 28.1315C7.67906 29 20.5 29 20.5 29C20.5 29 33.3209 29 36.5187 28.1315C38.2827 27.6557 39.6714 26.3039 40.1443 24.5216C41 21.2818 41 14.5302 41 14.5302C41 14.5302 41 7.77865 40.1443 4.5388ZM16.3114 20.6625V8.39792L27.0231 14.5302L16.3114 20.6625Z" fill="#FFFBF9"/>
</svg>
