<svg width="34" height="33" viewBox="0 0 34 33" fill="none" xmlns="http://www.w3.org/2000/svg">
<path fill-rule="evenodd" clip-rule="evenodd" d="M21.3886 1.11718L23.9277 3.67684C24.2573 4.00503 24.2573 4.49727 23.9277 4.82546L21.3557 7.38513C21.2238 7.54918 20.993 7.61479 20.7951 7.61479C20.5973 7.61479 20.3994 7.54918 20.2346 7.38513C19.9048 7.05694 19.9048 6.5647 20.2346 6.23651L21.4216 5.05512H4.07748L5.26453 6.23651C5.5943 6.5647 5.5943 7.05694 5.26453 7.38513C5.13269 7.54918 4.90185 7.61479 4.70401 7.61479C4.50617 7.61479 4.30833 7.54918 4.14348 7.38513L1.57154 4.82546C1.24178 4.49727 1.24178 4.00503 1.57154 3.67684L4.14348 1.11718C4.47317 0.789066 4.96777 0.789066 5.29753 1.11718C5.6273 1.44536 5.6273 1.93761 5.29753 2.2658L4.11048 3.44718H21.4216L20.2346 2.2658C19.9048 1.93761 19.9048 1.44536 20.2346 1.11718C20.5643 0.789066 21.059 0.789066 21.3886 1.11718ZM31.2807 28.0921C31.6105 27.7968 32.1051 27.7968 32.3689 28.125C32.6986 28.4531 32.6986 28.9454 32.3689 29.2735L29.7969 31.8332C29.6651 31.9973 29.4342 32.0629 29.2364 32.0629C29.0385 32.0629 28.8407 31.9973 28.6759 31.8332L26.1039 29.2735C25.7742 28.9454 25.7742 28.4531 26.1039 28.125C26.4336 27.7968 26.9282 27.7968 27.258 28.125L28.445 29.3063V12.045L27.258 13.2264C26.9282 13.5546 26.4336 13.5546 26.1039 13.2264C25.7742 12.8983 25.7742 12.406 26.1039 12.0778L28.6759 9.51816C29.0055 9.18997 29.5001 9.18997 29.8299 9.51816L32.4019 12.0778C32.7316 12.406 32.7316 12.8983 32.4019 13.2264C32.2699 13.3905 32.0392 13.4561 31.8413 13.4561C31.6435 13.4561 31.4456 13.3905 31.2807 13.2264L30.0937 12.045V29.2735L31.2807 28.0921ZM22.9714 9.71505C23.4331 9.71505 23.7957 10.076 23.8287 10.5355V30.8487C23.8287 31.3082 23.466 31.6691 23.0044 31.6691H2.59367C2.13207 31.6691 1.76938 31.3082 1.76938 30.8487V10.5355C1.76938 10.076 2.13207 9.71505 2.59367 9.71505H22.9714ZM22.1471 30.0283V11.3231H3.38504V30.0283H22.1471Z" fill="#FFFBF9"/>
</svg>
