<svg width="42" height="33" viewBox="0 0 42 33" fill="none" xmlns="http://www.w3.org/2000/svg">
<path fill-rule="evenodd" clip-rule="evenodd" d="M2.95756 29.9872C2.49588 29.9872 2.11812 30.3555 2.11812 30.8056C2.11812 31.2558 2.49588 31.6241 2.95756 31.6241H39.0551C39.5168 31.6241 39.8945 31.2558 39.8945 30.8056C39.8945 30.3555 39.5168 29.9872 39.0551 29.9872H25.6234V24.258H31.4998C34.7318 24.258 37.3761 21.6799 37.3761 18.5288C37.3761 16.0735 35.7811 13.9455 33.4725 13.127C33.5565 12.7587 33.5985 12.3904 33.5985 11.9813C33.5985 9.93506 32.4652 8.05268 30.6603 7.02959C30.6184 3.87858 28.0159 1.34131 24.784 1.34131C23.3568 1.34131 22.0137 1.87334 21.0063 2.69175C19.999 1.83238 18.6558 1.34131 17.2287 1.34131C13.9967 1.34131 11.3943 3.87858 11.3524 7.02959C9.54748 8.05268 8.41419 9.93506 8.41419 11.9813C8.41419 12.3904 8.45619 12.7587 8.54011 13.127C6.23152 13.9455 4.63655 16.0735 4.63655 18.5288C4.63655 21.6799 7.2809 24.258 10.5128 24.258H16.3892V29.9872H2.95756ZM31.4998 22.6211H28.0579C29.1492 21.598 29.8208 20.1248 29.8208 18.5288C29.8208 16.0735 28.2259 13.9455 25.8752 13.127C25.9593 12.7587 26.0012 12.3904 26.0012 11.9813C26.0012 9.93506 24.8679 8.05268 23.0631 7.02959C23.0631 5.88372 22.7272 4.81976 22.0976 3.91943C22.8112 3.30559 23.7346 2.97825 24.742 2.97825C27.0505 2.97825 28.9394 4.81976 28.9394 7.07054V7.43884C28.9394 7.80715 29.1073 8.1345 29.4431 8.25726C30.9541 8.91206 31.9195 10.3853 31.9195 11.9813C31.9195 12.4723 31.8356 12.9634 31.6676 13.4135C31.5837 13.659 31.5837 13.9046 31.7096 14.1092C31.8356 14.3138 32.0454 14.4775 32.2972 14.5184C34.2701 14.8867 35.6971 16.5645 35.6971 18.5288C35.6971 20.7796 33.8083 22.6211 31.4998 22.6211ZM17.2287 8.70738C16.767 8.70738 16.3892 9.07568 16.3892 9.5259V12.8815L14.4584 11.04C14.1227 10.7126 13.619 10.7126 13.2831 11.04C12.9474 11.3674 12.9474 11.8585 13.2831 12.1858L16.3892 15.2141V18.2015L14.4584 16.319C14.1227 15.9916 13.619 15.9916 13.2831 16.319C12.9474 16.6464 12.9474 17.1375 13.2831 17.4649L16.3892 20.4931V22.6211H10.4709C8.16235 22.6211 6.27353 20.7796 6.27353 18.5288C6.27353 16.5645 7.70066 14.8867 9.6734 14.5184C9.92524 14.4775 10.1351 14.3138 10.261 14.1092C10.3869 13.9046 10.3869 13.6181 10.303 13.4135C10.0932 12.9634 10.0092 12.4723 10.0092 11.9813C10.0092 10.3853 10.9746 8.91206 12.4857 8.25726C12.8214 8.09354 13.0313 7.76619 12.9894 7.43884V7.07054C12.9894 4.81976 14.8782 2.97825 17.1867 2.97825C19.4953 2.97825 21.3841 4.81976 21.3841 7.07054V7.43884C21.3841 7.80715 21.552 8.1345 21.8878 8.25726C23.3988 8.91206 24.3642 10.3853 24.3642 11.9813C24.3642 12.4723 24.2803 12.9634 24.1124 13.4135C24.0284 13.659 24.0284 13.9046 24.1544 14.1092C24.2803 14.3138 24.4901 14.4775 24.742 14.5184C26.7148 14.8867 28.1418 16.5645 28.1418 18.5288C28.1418 20.7796 26.253 22.6211 23.9445 22.6211H18.0681V20.4522L21.1743 17.4239C21.51 17.0965 21.51 16.6055 21.1743 16.2781C20.8384 15.9507 20.3347 15.9507 19.999 16.2781L18.0681 18.1605V15.1732L21.1743 12.1449C21.51 11.8175 21.51 11.3265 21.1743 10.9991C20.8384 10.6717 20.3347 10.6717 19.999 10.9991L18.0681 12.8815V9.5259C18.0681 9.07568 17.6904 8.70738 17.2287 8.70738ZM18.0681 29.9872V24.258H23.9445V29.9872H18.0681Z" fill="#FFFBF9"/>
</svg>
