<svg width="36" height="39" viewBox="0 0 36 39" fill="none" xmlns="http://www.w3.org/2000/svg">
<path fill-rule="evenodd" clip-rule="evenodd" d="M17.8715 2.01428L33.1556 8.20659C33.2797 8.2568 33.3609 8.37743 33.3609 8.51149V30.3374C33.3609 30.4715 33.2797 30.5921 33.1556 30.6423L17.8715 36.8346C17.7916 36.867 17.7022 36.8665 17.6226 36.8335L2.68908 30.6393C2.56642 30.5883 2.48633 30.4685 2.48633 30.3354V21.9689C2.48633 21.7873 2.63342 21.64 2.81473 21.64H3.47169C3.65315 21.64 3.80009 21.7873 3.80009 21.9689V25.2117L17.0928 19.698V3.65828L15.393 4.36328C15.2255 4.43275 15.0335 4.35333 14.964 4.18564L14.7122 3.57886C14.6788 3.49817 14.6788 3.40754 14.712 3.32686C14.7453 3.24617 14.8093 3.18207 14.8899 3.14875L17.6226 2.01522C17.7022 1.98222 17.7916 1.98191 17.8715 2.01428ZM3.80009 27.1579V29.677L17.7526 35.4643L32.0471 29.673V27.1499L17.8652 32.5574C17.7892 32.5865 17.705 32.5862 17.629 32.5565L3.80009 27.1579ZM27.8739 23.5296V14.8808L22.9277 12.9096V21.5258L27.8739 23.5296ZM30.9077 26.1772L17.7526 20.8476L4.90338 26.1774L17.7525 31.1935L30.9077 26.1772ZM18.4066 3.64943L18.4068 19.6941L21.6138 20.9935V11.4557C21.6138 11.3468 21.6679 11.2448 21.7579 11.1835C21.8481 11.1223 21.9626 11.1098 22.0638 11.1502L28.9807 13.9066C29.1057 13.9565 29.1877 14.0776 29.1877 14.2123V24.0619L32.0471 25.2204V9.17575L18.4066 3.64943ZM12.7847 5.44517L8.95912 7.03201C8.79169 7.10133 8.59982 7.02191 8.53013 6.85422L8.27851 6.24759C8.24509 6.16691 8.24493 6.07628 8.2782 5.99559C8.31162 5.91491 8.37563 5.8508 8.45604 5.81749L12.2816 4.23064C12.449 4.16117 12.6411 4.24075 12.7106 4.40828L12.9624 5.01507C12.9958 5.09559 12.9958 5.18622 12.9625 5.26691C12.9293 5.34759 12.8652 5.4117 12.7847 5.44517ZM3.80009 9.1718V11.9403C3.80009 12.1219 3.65315 12.2692 3.47169 12.2692H2.81473C2.63342 12.2692 2.48633 12.1219 2.48633 11.9403V8.51338C2.48633 8.38043 2.56642 8.26043 2.68908 8.20959L5.67385 6.97138C5.84128 6.90191 6.03331 6.98149 6.10284 7.14917L6.35462 7.75596C6.38804 7.83649 6.3882 7.92712 6.35477 8.0078C6.32151 8.08849 6.2575 8.15259 6.17694 8.18607L3.80009 9.1718ZM3.80009 14.4349V19.068C3.80009 19.2497 3.65315 19.3969 3.47169 19.3969H2.81473C2.63342 19.3969 2.48633 19.2497 2.48633 19.068V14.4349C2.48633 14.2533 2.63342 14.106 2.81473 14.106H3.47169C3.65315 14.106 3.80009 14.2533 3.80009 14.4349Z" fill="#FFFBF9"/>
</svg>
