<svg width="23" height="22" viewBox="0 0 23 22" fill="none" xmlns="http://www.w3.org/2000/svg">
<path d="M17.6845 11C17.6845 14.4659 14.8496 17.2857 11.3652 17.2857C7.88066 17.2857 5.04579 14.4659 5.04579 11C5.04579 7.53406 7.88066 4.71429 11.3652 4.71429C14.8496 4.71429 17.6845 7.53406 17.6845 11ZM11.3652 3.92857C11.8016 3.92857 12.1551 3.57697 12.1551 3.14286V0.785714C12.1551 0.351598 11.8016 0 11.3652 0C10.9287 0 10.5752 0.351598 10.5752 0.785714V3.14286C10.5752 3.57697 10.9287 3.92857 11.3652 3.92857ZM11.3652 18.0714C10.9287 18.0714 10.5752 18.423 10.5752 18.8571V21.2143C10.5752 21.6484 10.9287 22 11.3652 22C11.8016 22 12.1551 21.6484 12.1551 21.2143V18.8571C12.1551 18.423 11.8016 18.0714 11.3652 18.0714ZM21.6341 10.2143H19.2644C18.8279 10.2143 18.4744 10.5659 18.4744 11C18.4744 11.4341 18.8279 11.7857 19.2644 11.7857H21.6341C22.0706 11.7857 22.424 11.4341 22.424 11C22.424 10.5659 22.0706 10.2143 21.6341 10.2143ZM4.25587 11C4.25587 10.5659 3.90239 10.2143 3.46595 10.2143H1.09619C0.659754 10.2143 0.306274 10.5659 0.306274 11C0.306274 11.4341 0.659754 11.7857 1.09619 11.7857H3.46595C3.90239 11.7857 4.25587 11.4341 4.25587 11ZM16.951 6.22965C17.1534 6.22965 17.3558 6.15304 17.5098 5.99983L19.1854 4.33313C19.4945 4.02571 19.4945 3.52974 19.1854 3.22232C18.8764 2.9149 18.3777 2.9149 18.0687 3.22232L16.3931 4.88901C16.084 5.19644 16.084 5.6924 16.3931 5.99983C16.5471 6.15304 16.7486 6.22965 16.951 6.22965ZM5.22071 16.0009L3.5451 17.6676C3.23603 17.975 3.23603 18.471 3.5451 18.7784C3.69913 18.9316 3.90156 19.0082 4.10396 19.0082C4.30637 19.0082 4.5088 18.9316 4.66282 18.7784L6.33843 17.1117C6.6475 16.8043 6.6475 16.3083 6.33843 16.0009C6.02936 15.6935 5.52978 15.6935 5.22071 16.0009ZM17.5098 16.0009C17.2008 15.6935 16.7022 15.6935 16.3931 16.0009C16.084 16.3083 16.084 16.8043 16.3931 17.1117L18.0687 18.7784C18.2227 18.9316 18.4252 19.0082 18.6276 19.0082C18.83 19.0082 19.0324 18.9316 19.1864 18.7784C19.4955 18.471 19.4955 17.975 19.1864 17.6676L17.5098 16.0009ZM5.22071 5.99984C5.37475 6.15306 5.57718 6.22966 5.77957 6.22966C5.98199 6.22966 6.18442 6.15305 6.33843 5.99984C6.6475 5.69242 6.6475 5.19645 6.33843 4.88903L4.66282 3.22233C4.35375 2.91491 3.85513 2.91491 3.54606 3.22233C3.23699 3.52976 3.23699 4.02572 3.54606 4.33315L5.22071 5.99984Z" fill="white"/>
</svg>
